<svg width="57" height="57" viewBox="0 0 57 57" fill="none" xmlns="http://www.w3.org/2000/svg">
<path d="M28.0371 34.4583H51.2225V38.9632H28.0371V34.4583Z" fill="#E8C444"/>
<path d="M14.5127 17.9402H28.4877V23.5714H14.5127V17.9402Z" fill="#E8C444"/>
<rect x="27.8789" y="17.9497" width="1.17988" height="21.0036" transform="rotate(0.241368 27.8789 17.9497)" fill="#E8C444"/>
<path fill-rule="evenodd" clip-rule="evenodd" d="M2.3241 34.4583L0.381836 36.0891L23.6584 53.0638L28.0761 49.3545L7.64962 34.4583H2.3241Z" fill="#E8C444"/>
<path fill-rule="evenodd" clip-rule="evenodd" d="M28.8095 49.2856H27.6674L23.6895 53.0524L25.1385 54.0064V53.9798H31.5992L32.867 53.0524L28.8095 49.2856ZM28.5199 56.2323H28.5195L28.5197 56.2324L28.5199 56.2323Z" fill="#E8C444"/>
<path fill-rule="evenodd" clip-rule="evenodd" d="M28.3984 49.3552L48.8256 34.4585H54.1499L56.0927 36.0898L32.8161 53.0645L28.3984 49.3552Z" fill="#E8C444"/>
<path fill-rule="evenodd" clip-rule="evenodd" d="M49.4666 31.4547L21.2285 0.0158027L30.6123 0.00195312L56.9995 29.3802L56.3273 31.4547H49.4666Z" fill="#E8C444"/>
<path fill-rule="evenodd" clip-rule="evenodd" d="M26.2257 0L0 29.1983L0.550134 31.4551H7.36919L35.6219 0H26.2257Z" fill="#E8C444"/>
</svg>
